<svg width="83" height="110" viewBox="0 0 83 110" fill="none" xmlns="http://www.w3.org/2000/svg">
<g filter="url(#filter0_i_2_12)">
<path d="M27.6661 27.5C20.0252 27.5 13.8326 21.3447 13.8326 13.75C13.8326 6.15527 20.0252 0 27.6661 0C35.3069 0 41.4996 6.15527 41.4996 13.75C41.4996 21.3447 35.3069 27.5 27.6661 27.5ZM34.2867 63.9697C31.2477 67.5619 25.8569 68.0711 22.1889 65.0912L3.16786 49.6182C-0.526115 46.6146 -1.06648 41.1984 1.95311 37.5268C4.97269 33.8508 10.424 33.318 14.1244 36.3193L26.54 46.417L34.9503 36.4676C38.2876 32.5166 43.4276 30.4691 48.7838 31.0256C54.0124 31.5584 58.5645 34.5211 60.968 38.9576L71.6393 58.7297C76.6971 68.1055 73.5176 79.4342 64.2492 85.3166L54.5636 92.8125H74.3541C79.1288 92.8125 83 96.6604 83 101.406C83 106.152 79.1288 110 74.3541 110H29.3953C22.0289 110 17.773 100.807 23.2826 95.3305L47.0286 71.7277L39.5067 57.7908L34.2867 63.9697Z" fill="#DFF6FF"/>
</g>
<defs>
<filter id="filter0_i_2_12" x="-7.62939e-06" y="0" width="83" height="114" filterUnits="userSpaceOnUse" color-interpolation-filters="sRGB">
<feFlood flood-opacity="0" result="BackgroundImageFix"/>
<feBlend mode="normal" in="SourceGraphic" in2="BackgroundImageFix" result="shape"/>
<feColorMatrix in="SourceAlpha" type="matrix" values="0 0 0 0 0 0 0 0 0 0 0 0 0 0 0 0 0 0 127 0" result="hardAlpha"/>
<feOffset dy="4"/>
<feGaussianBlur stdDeviation="2"/>
<feComposite in2="hardAlpha" operator="arithmetic" k2="-1" k3="1"/>
<feColorMatrix type="matrix" values="0 0 0 0 0 0 0 0 0 0 0 0 0 0 0 0 0 0 0.25 0"/>
<feBlend mode="normal" in2="shape" result="effect1_innerShadow_2_12"/>
</filter>
</defs>
</svg>
